<svg xmlns="http://www.w3.org/2000/svg" viewBox="0 0 463 344.05"><defs><style>.a{fill:#ba8;}.b{fill:#432;}</style></defs><title>logo2</title><rect class="a" x="129.68" y="25" width="55" height="50"/><rect class="a" x="129.68" y="87" width="55" height="136"/><polygon class="a" points="260.18 123 198.18 87 198.18 159 260.18 123"/><polygon class="a" points="259 0 231.5 47.63 270.68 70.25 270.68 222.5 270.68 223 325.68 223 325.68 222.5 325.68 38.5 259 0"/><path class="b" d="M126,461.05v-1.7h52.3v1.7Zm8.1,22.1a13.75,13.75,0,0,1,1.35-6.15,14.27,14.27,0,0,1,3.75-4.75,17.26,17.26,0,0,1,5.65-3.1,21.31,21.31,0,0,1,7-1.1,22.07,22.07,0,0,1,6.9,1.05,17.4,17.4,0,0,1,5.6,3,14.32,14.32,0,0,1,3.8,4.75,14.87,14.87,0,0,1,0,12.6,15,15,0,0,1-3.8,4.8,17,17,0,0,1-5.6,3.05,22.07,22.07,0,0,1-6.9,1.05,22.43,22.43,0,0,1-7-1.05,16.8,16.8,0,0,1-5.65-3.05,14,14,0,0,1-5.1-11.1Zm1.8,0a12.25,12.25,0,0,0,4.7,10,15.61,15.61,0,0,0,5.05,2.65,21.46,21.46,0,0,0,12.3,0A15.71,15.71,0,0,0,163,493.1a13.12,13.12,0,0,0,3.45-15.65,12,12,0,0,0-3.45-4.2,16,16,0,0,0-5.05-2.6,20.32,20.32,0,0,0-6.15-.9,19.15,19.15,0,0,0-6.15.95,16.11,16.11,0,0,0-5.05,2.7,12.47,12.47,0,0,0-3.45,4.2A11.94,11.94,0,0,0,135.93,483.15Zm30.9-34.2c-1.54.13-3,.2-4.4.2H158a66.45,66.45,0,0,1-11.05-.9,29.24,29.24,0,0,1-9.85-3.5l.6-1.3a37.19,37.19,0,0,0,9.45,3,57.59,57.59,0,0,0,11.35.9h4.05c1.3,0,2.71-.07,4.25-.2Zm-9.7,80.1a5.65,5.65,0,0,1-4.25-1.45,5.83,5.83,0,0,1-1.65-4.45v-11.6a1.78,1.78,0,0,0-.9-1.7,12.14,12.14,0,0,0-3.55-1.25c-1.44-.3-2.78-.55-4.05-.75l.4-1.6c.6.06,1.28.16,2.05.3s1.55.3,2.35.5,1.55.4,2.25.6a7.86,7.86,0,0,1,1.75.7,2.11,2.11,0,0,1,1.3,1.25,7.41,7.41,0,0,1,.2,1.85v11.4q0,4.5,4.3,4.5h42.5v1.7Zm21.7-89.7a27.43,27.43,0,0,1,3.25.65c1.17.3,2.28.61,3.35.95s2,.66,2.9,1a10.1,10.1,0,0,1,1.9.9,3.37,3.37,0,0,1,1.5,1.4,4.9,4.9,0,0,1,.3,1.9V479h18v1.7H192v29.9h-1.8v-64.2a2.11,2.11,0,0,0-.9-1.9,15.36,15.36,0,0,0-2.05-1.05,23.69,23.69,0,0,0-2.75-1c-1-.3-2-.59-3.05-.85s-2-.5-3-.7Z" transform="translate(-123.53 -187.5)"/><path class="b" d="M156.82,531.55a8,8,0,0,1-5.65-2.13,8.22,8.22,0,0,1-2.44-6.27V511.83a11.3,11.3,0,0,0-2.46-.79c-1.39-.29-2.71-.53-3.93-.72l-2.7-.43,1.59-6.37,2.17.24c.65.07,1.37.18,2.21.32s1.68.33,2.53.54l2.33.62a10.72,10.72,0,0,1,2.2.88,4.4,4.4,0,0,1,2.57,2.83,9.33,9.33,0,0,1,.29,2.5v11.4c0,1.82.52,2,1.8,2h45v6.7H156.82ZM149.1,512h0Zm45.43,1h-6.8V446.4c-.37-.21-.87-.45-1.46-.72a25,25,0,0,0-2.46-.89c-1-.29-1.95-.56-3-.82s-2-.49-2.91-.67l-2.61-.52,1.65-6.2,2.18.29a30.78,30.78,0,0,1,3.54.71c1.19.3,2.35.63,3.47,1s2.15.7,3.05,1.05a13.19,13.19,0,0,1,2.33,1.11,5.67,5.67,0,0,1,2.48,2.54,7.27,7.27,0,0,1,.5,2.89v30.3h18v6.7h-18Zm-42.7-12.2a25.25,25.25,0,0,1-7.72-1.17,19.49,19.49,0,0,1-6.48-3.51,16.51,16.51,0,0,1-6-13,16.24,16.24,0,0,1,1.61-7.25,16.7,16.7,0,0,1,4.39-5.57,20,20,0,0,1,6.45-3.55,24,24,0,0,1,7.75-1.23,24.61,24.61,0,0,1,7.68,1.17,19.91,19.91,0,0,1,6.4,3.44,16.8,16.8,0,0,1,4.45,5.57,17.34,17.34,0,0,1,0,14.83,17.34,17.34,0,0,1-4.44,5.61,19.37,19.37,0,0,1-6.42,3.5A24.61,24.61,0,0,1,151.83,500.85Zm0-28.6a16.78,16.78,0,0,0-5.36.82,14.2,14.2,0,0,0-4.29,2.28,10.12,10.12,0,0,0-2.77,3.38,9.47,9.47,0,0,0-1,4.42,9.72,9.72,0,0,0,3.75,8,13,13,0,0,0,4.25,2.22,18.85,18.85,0,0,0,10.8,0,13.09,13.09,0,0,0,4.24-2.22,9.84,9.84,0,0,0,2.77-3.41,11.11,11.11,0,0,0,0-9.17,9.54,9.54,0,0,0-2.74-3.34,14,14,0,0,0-4.27-2.19A18,18,0,0,0,151.83,472.25Zm29-8.7h-57.3v-6.7h57.3Zm-18.4-11.9H158a69.45,69.45,0,0,1-11.47-.94,31.75,31.75,0,0,1-10.68-3.8l-2-1.14,2.63-5.69,2.3,1.12a34.41,34.41,0,0,0,8.81,2.79,54,54,0,0,0,10.85.86h4.09c1.23,0,2.59-.07,4-.19l2.72-.24v6.82l-2.28.2C165.46,451.58,163.91,451.65,162.43,451.65Z" transform="translate(-123.53 -187.5)"/><path class="b" d="M218.53,479.15v-1.7h59.7q1.2-3.29,2.2-7.08t1.7-7.52c.46-2.5.81-4.87,1.05-7.13a43.48,43.48,0,0,0,.25-5.88c0-1-.57-1.5-1.7-1.5h-46.8v-1.69h47.2a3.69,3.69,0,0,1,2.25.7,2.53,2.53,0,0,1,.95,2.19,58,58,0,0,1-.4,6.23q-.4,3.54-1.1,7.32t-1.7,7.53a67.1,67.1,0,0,1-2.2,6.83h24.6v1.7Zm26.4,49.4a4.64,4.64,0,0,1-3.7-1.35,5.29,5.29,0,0,1-1.4-3.85v-10.3a3.28,3.28,0,0,0-.1-.9c-.07-.2-.3-.37-.7-.5a12.32,12.32,0,0,0-2.75-.6,25.77,25.77,0,0,0-3.25-.2l.2-1.6a29.73,29.73,0,0,1,3.85.25,11.94,11.94,0,0,1,3.15.75h40.4l1-12.4q.09-.9-.3-1.2a2,2,0,0,0-1.2-.3h-44v-1.7h44.6a3.23,3.23,0,0,1,2.2.7,2.49,2.49,0,0,1,.6,2.3l-1.2,12.6h3.2V512h-44a5.67,5.67,0,0,1,.1,1.2v10.1q0,3.6,3.3,3.6h43.2v1.7Z" transform="translate(-123.53 -187.5)"/><path class="b" d="M244.65,531.05a7,7,0,0,1-5.22-2.12,7.74,7.74,0,0,1-2.1-5.58v-9.59a11.82,11.82,0,0,0-1.35-.23,24.83,24.83,0,0,0-2.95-.18H230.2l.82-6.6h2.21a33,33,0,0,1,4.17.27,15.35,15.35,0,0,1,3.29.73h37.63l.72-8.9H233.63v-6.7h47.1a5.66,5.66,0,0,1,3.84,1.31A4.81,4.81,0,0,1,286,498l-.93,9.79H288v6.7h-43.9v8.8a1.89,1.89,0,0,0,.17,1h0a1.5,1.5,0,0,0,.63.09h45.7v6.7h-46ZM307,481.65H216V475h60.43q.82-2.47,1.55-5.22c.65-2.46,1.21-4.94,1.66-7.35s.8-4.74,1-6.92a42.13,42.13,0,0,0,.26-4.62H232.43v-6.69h49.7a6.14,6.14,0,0,1,3.73,1.18,5,5,0,0,1,2,4.21,58.37,58.37,0,0,1-.42,6.51c-.27,2.4-.65,4.92-1.12,7.5s-1.07,5.17-1.75,7.71q-.51,1.92-1.08,3.69H307Z" transform="translate(-123.53 -187.5)"/><path class="b" d="M368.83,439.35a44.28,44.28,0,0,1,6.4,1.55,32.27,32.27,0,0,1,5,2,3.37,3.37,0,0,1,1.5,1.4,4.9,4.9,0,0,1,.3,1.9v35.3h19.5v1.7H382v45.9h-1.8v-36a129.92,129.92,0,0,1-24.8,7.9,119.68,119.68,0,0,1-25.6,2.6,5.56,5.56,0,0,1-4.1-1.6,6.52,6.52,0,0,1-1.6-4.8v-18.1a1.32,1.32,0,0,0-.8-1.4A19.12,19.12,0,0,0,320,477a32.11,32.11,0,0,0-4-.25l.2-1.6a43.37,43.37,0,0,1,4.45.25,14.73,14.73,0,0,1,3.95.85h28.1l2.4-19.7c.13-.94-.3-1.4-1.3-1.4h-33.9v-1.7h34.2a3,3,0,0,1,2.2.8,2.46,2.46,0,0,1,.6,2.2l-2.5,19.8h3.4V478h-31.9v19.2a5.17,5.17,0,0,0,1.05,3.5,3.59,3.59,0,0,0,2.85,1.2,107.59,107.59,0,0,0,12.4-.55q6.39-.66,12.9-1.95a125.47,125.47,0,0,0,12.85-3.3,107.69,107.69,0,0,0,12.25-4.7v-45a2,2,0,0,0-.9-1.9,20.26,20.26,0,0,0-4.85-2.1,44.81,44.81,0,0,0-6.05-1.5Z" transform="translate(-123.53 -187.5)"/><path class="b" d="M384.53,531.55h-6.8V496.79a131.54,131.54,0,0,1-21.79,6.6,123.23,123.23,0,0,1-26.13,2.66,8,8,0,0,1-5.85-2.34,8.88,8.88,0,0,1-2.33-6.56V479.79c-.56-.12-1.22-.22-1.95-.31a31.37,31.37,0,0,0-3.65-.23H313.2l.82-6.6h2.21a45.78,45.78,0,0,1,4.7.26,18.24,18.24,0,0,1,4.15.84h25.43l2-16.1H317.43V451h36.7a5.41,5.41,0,0,1,4,1.53,4.86,4.86,0,0,1,1.31,4.32l-2.14,16.95h3.07v6.7h-31.9v16.7a3,3,0,0,0,.43,1.85,1.1,1.1,0,0,0,1,.35,105,105,0,0,0,12.15-.54c4.16-.42,8.42-1.07,12.66-1.91a123.7,123.7,0,0,0,12.59-3.24,105.37,105.37,0,0,0,10.5-3.93V446.4a20.1,20.1,0,0,0-4-1.67,42.58,42.58,0,0,0-5.72-1.42l-2.69-.47,1.69-6.32,2.23.36a47.27,47.27,0,0,1,6.76,1.63,33.55,33.55,0,0,1,5.41,2.13l.09.05a5.78,5.78,0,0,1,2.54,2.57,7.45,7.45,0,0,1,.5,2.89V479H404v6.7h-19.5Z" transform="translate(-123.53 -187.5)"/><path class="b" d="M414.53,475.65a20.22,20.22,0,0,1,6.3-14.85,20.28,20.28,0,0,1,6.8-4.25,23.2,23.2,0,0,1,8.4-1.5,22.93,22.93,0,0,1,8.3,1.5,20.91,20.91,0,0,1,6.85,4.25A20.72,20.72,0,0,1,455.83,484a20.34,20.34,0,0,1-4.65,6.55,21.07,21.07,0,0,1-6.85,4.25,22.93,22.93,0,0,1-8.3,1.5,23.2,23.2,0,0,1-8.4-1.5,20.17,20.17,0,0,1-11.4-10.8A20,20,0,0,1,414.53,475.65Zm1.8,0a18.48,18.48,0,0,0,1.55,7.6,18,18,0,0,0,4.25,6,20,20,0,0,0,6.25,3.9,21.46,21.46,0,0,0,15.25,0,19.89,19.89,0,0,0,6.3-3.9,18.18,18.18,0,0,0,4.25-6,19.41,19.41,0,0,0,0-15.2,18,18,0,0,0-4.25-6,19.54,19.54,0,0,0-6.3-3.9,21.46,21.46,0,0,0-15.25,0,19.63,19.63,0,0,0-6.25,3.9,17.83,17.83,0,0,0-4.25,6A18.42,18.42,0,0,0,416.33,475.65Zm51.5-36.3a44.28,44.28,0,0,1,6.4,1.55,32.27,32.27,0,0,1,5,2,3.37,3.37,0,0,1,1.5,1.4,4.9,4.9,0,0,1,.3,1.9v82.9h-1.8v-82.7a2,2,0,0,0-.9-1.9,20.26,20.26,0,0,0-4.85-2.1,44.81,44.81,0,0,0-6.05-1.5Z" transform="translate(-123.53 -187.5)"/><path class="b" d="M483.53,531.55h-6.8V446.4a20.1,20.1,0,0,0-4-1.67,42.58,42.58,0,0,0-5.72-1.42l-2.69-.47,1.68-6.32,2.24.36a47.27,47.27,0,0,1,6.76,1.63,33.94,33.94,0,0,1,5.41,2.13l.09.05a5.7,5.7,0,0,1,2.53,2.57,7.26,7.26,0,0,1,.51,2.89ZM436,498.75a25.72,25.72,0,0,1-9.3-1.67A22.67,22.67,0,0,1,414,485a23.58,23.58,0,0,1,0-18.64,22.76,22.76,0,0,1,5.16-7.35,23.13,23.13,0,0,1,7.62-4.77,25.93,25.93,0,0,1,9.3-1.66,25.57,25.57,0,0,1,9.19,1.66,23.43,23.43,0,0,1,7.66,4.76,22.89,22.89,0,0,1,0,33.36,23.57,23.57,0,0,1-7.66,4.75A25.36,25.36,0,0,1,436,498.75Zm0-39.5a18.39,18.39,0,0,0-6.74,1.22,17.43,17.43,0,0,0-5.46,3.41,15.54,15.54,0,0,0-3.67,5.18,17,17,0,0,0,0,13.17,15.44,15.44,0,0,0,3.67,5.18,17.25,17.25,0,0,0,5.46,3.41,18.94,18.94,0,0,0,13.43,0,17.22,17.22,0,0,0,5.51-3.41,15.45,15.45,0,0,0,3.66-5.18,16.85,16.85,0,0,0,0-13.17,15.65,15.65,0,0,0-3.66-5.18,17.2,17.2,0,0,0-5.51-3.4A18.3,18.3,0,0,0,436,459.25Z" transform="translate(-123.53 -187.5)"/><path class="b" d="M499,516.55v-1.7h85v1.7Zm42.7-62.8a15,15,0,0,1,2,.9,3.1,3.1,0,0,1,1.4,1.25,3.24,3.24,0,0,1,.1,2.15,27.1,27.1,0,0,1-2.1,6.3,41,41,0,0,1-3.8,6.4q3.9,1.5,8.5,3.55t9.2,4.4q4.59,2.34,8.9,4.7c2.86,1.56,5.36,3.05,7.5,4.45l-1.2,1.6c-2.07-1.34-4.52-2.8-7.35-4.4s-5.8-3.17-8.9-4.7-6.19-3-9.25-4.45-5.87-2.69-8.4-3.75a68.22,68.22,0,0,1-29.8,21.8l-.9-1.5A64.14,64.14,0,0,0,520.48,486a69.17,69.17,0,0,0,10.75-8.6,55.6,55.6,0,0,0,7.85-9.6,31.93,31.93,0,0,0,4.25-9.55,3.16,3.16,0,0,0,0-1.45,2,2,0,0,0-1-1.05,15.63,15.63,0,0,0-2.65-1.2,11.49,11.49,0,0,0-3.25-.8h-26.1v-1.7h60.8v1.7Z" transform="translate(-123.53 -187.5)"/><path class="b" d="M586.53,519.05h-90v-6.7h90Zm-79.08-22-3.52-5.87,2.83-1a61,61,0,0,0,12.35-6.2,65.67,65.67,0,0,0,10.36-8.28,53.5,53.5,0,0,0,7.5-9.16,29.53,29.53,0,0,0,3.91-8.72,17.86,17.86,0,0,0-2-.86,9.76,9.76,0,0,0-2.46-.63h-28.5v-6.7h65.8v6.7H547.81a6.93,6.93,0,0,1-.14,2.32,29.7,29.7,0,0,1-2.28,6.84,41.58,41.58,0,0,1-2.26,4.16c1.8.73,3.72,1.55,5.72,2.44,3.09,1.38,6.22,2.88,9.31,4.46s6.09,3.16,9,4.73,5.5,3.13,7.67,4.56l2.23,1.46-4.2,5.59-2-1.26c-2-1.31-4.46-2.77-7.22-4.33s-5.72-3.12-8.78-4.63-6.12-3-9.2-4.43c-2.34-1.09-4.54-2.08-6.57-3A69.59,69.59,0,0,1,527,486.69a68.57,68.57,0,0,1-17.59,9.6Z" transform="translate(-123.53 -187.5)"/></svg>