<?xml version="1.0" standalone="no"?>
<!DOCTYPE svg PUBLIC "-//W3C//DTD SVG 20010904//EN"
 "http://www.w3.org/TR/2001/REC-SVG-20010904/DTD/svg10.dtd">
<svg version="1.0" xmlns="http://www.w3.org/2000/svg"
 width="700.000000pt" height="700.000000pt" viewBox="0 0 700.000000 700.000000"
 preserveAspectRatio="xMidYMid meet">
<metadata>
Created by potrace 1.14, written by Peter Selinger 2001-2017
</metadata>
<g transform="translate(0.000000,700.000000) scale(0.100000,-0.100000)"
fill="#000000" stroke="none">
<path d="M105 6984 c-46 -24 -81 -61 -94 -102 -9 -28 -11 -832 -9 -3404 l3
-3366 31 -39 c61 -75 27 -72 702 -73 569 0 606 1 645 18 23 11 50 28 60 40 45
51 45 27 45 1366 1 699 1 1285 1 1302 l1 31 173 -1 174 0 0 -1306 c0 -1427 -3
-1342 58 -1402 15 -15 44 -32 64 -38 22 -6 262 -10 631 -10 559 0 598 2 636
19 46 21 77 59 91 111 6 21 9 1370 9 3390 -1 3292 -1 3356 -20 3385 -28 42
-47 60 -82 78 -28 15 -103 16 -639 17 -587 0 -610 0 -649 -20 -50 -24 -96 -90
-97 -140 0 -19 -1 -611 -2 -1315 l-2 -1280 -172 -1 -173 -1 -1 36 c0 20 0 608
-1 1306 0 1352 2 1305 -46 1359 -9 10 -35 27 -57 37 -37 17 -79 19 -645 19
-528 0 -609 -2 -635 -16z"/>
<path d="M3775 6981 c-45 -21 -79 -62 -92 -112 -5 -19 -9 -690 -8 -1549 1
-1661 -3 -1541 58 -1598 50 -47 59 -48 693 -47 667 1 646 -1 699 69 22 29 29
52 34 104 3 37 6 729 5 1538 l-1 1471 -21 44 c-12 24 -38 55 -59 69 l-37 25
-615 2 c-582 3 -618 2 -656 -16z"/>
<path d="M5608 6980 c-45 -24 -75 -61 -87 -109 -15 -54 -13 -3030 2 -3076 13
-44 50 -82 98 -104 32 -15 102 -16 640 -16 l604 0 44 25 c30 17 52 39 68 69
l23 45 -2 1536 -3 1537 -28 36 c-58 77 -9 72 -702 74 -598 2 -621 2 -657 -17z"/>
<path d="M3780 3312 c-40 -16 -63 -38 -86 -82 -17 -33 -18 -101 -18 -1570 0
-1670 -4 -1563 52 -1613 52 -48 3 -46 1614 -47 1699 0 1571 -6 1625 72 l28 41
3 1516 c2 834 0 1535 -3 1559 -8 53 -52 106 -103 123 -55 19 -3066 20 -3112 1z
m1632 -956 c170 -16 344 -106 453 -233 205 -240 228 -594 54 -850 -45 -66
-155 -171 -222 -211 -408 -245 -946 -9 -1042 455 -79 382 150 738 535 830 26
6 145 19 155 17 6 -2 36 -5 67 -8z"/>
</g>
</svg>
