<?xml version="1.0" encoding="utf-8" standalone="no" ?>
<svg width="160px" height="160px" viewBox="0 0 160 160" version="1.1" xmlns="http://www.w3.org/2000/svg">
  <!-- H -->
  <rect fill="#432" width="34" height="160" x="0" y="0" rx="4" />
  <rect fill="#432" width="34" height="160" x="42" y="0" rx="4" />
  <rect fill="#432" width="70" height="34" x="3" y="63" />

  <!-- ㅎ -->
  <rect fill="#432" width="34" height="76" x="84" y="0" rx="4" />
  <rect fill="#432" width="34" height="76" x="126" y="0" rx="4" />
  <path fill="#432" d="
    M88 84h68s4 0 4 4v68s0 4 -4 4h-68s-4 0 -4 -4v-68s0 -4 4 -4
    M106 122a16 16 0 1 0 32 0a16 16 0 1 0 -32 0" />

  <!--
    https://thednp.github.io/svg-path-commander/convert.html
    is used to convert the below shapes into <path>

    <rect fill="#432" width="76" height="76" x="84" y="84" rx="4" />
    <circle fill="#fff" r="16" cx="122" cy="122" />
  -->
</svg>