<?xml version="1.0" encoding="utf-8" standalone="no" ?>
<svg width="160px" height="160px" viewBox="0 0 160 160" version="1.1" xmlns="http://www.w3.org/2000/svg">
  <!-- H -->
  <rect fill="#432" width="32" height="160" x="0" y="0" rx="4" />
  <rect fill="#432" width="32" height="160" x="40" y="0" rx="4" />
  <rect fill="#432" width="72" height="32" x="0" y="64" />

  <!-- ㅎ -->
  <rect fill="#432" width="32" height="76" x="80" y="0" rx="4" />
  <rect fill="#432" width="32" height="76" x="120" y="0" rx="4" />
  <path fill="#432" d="
    M84 84h64s4 0 4 4v68s0 4 -4 4h-64s-4 0 -4 -4v-68s0 -4 4 -4
    M100 122a16 16 0 1 0 32 0a16 16 0 1 0 -32 0" />
</svg>